<svg id="visual" viewBox="0 0 900 600" width="900" height="600" xmlns="http://www.w3.org/2000/svg" xmlns:xlink="http://www.w3.org/1999/xlink" version="1.1"><path d="M0 429L21.5 419C43 409 86 389 128.8 375.8C171.7 362.7 214.3 356.3 257.2 363.7C300 371 343 392 385.8 399.8C428.7 407.7 471.3 402.3 514.2 407.2C557 412 600 427 642.8 427C685.7 427 728.3 412 771.2 401.2C814 390.3 857 383.7 878.5 380.3L900 377L900 601L878.5 601C857 601 814 601 771.2 601C728.3 601 685.7 601 642.8 601C600 601 557 601 514.2 601C471.3 601 428.7 601 385.8 601C343 601 300 601 257.2 601C214.3 601 171.7 601 128.8 601C86 601 43 601 21.5 601L0 601Z" fill="#fa7268"></path><path d="M0 422L21.5 422.5C43 423 86 424 128.8 420.3C171.7 416.7 214.3 408.3 257.2 404.8C300 401.3 343 402.7 385.8 415.3C428.7 428 471.3 452 514.2 453.8C557 455.7 600 435.3 642.8 424.2C685.7 413 728.3 411 771.2 413.5C814 416 857 423 878.5 426.5L900 430L900 601L878.5 601C857 601 814 601 771.2 601C728.3 601 685.7 601 642.8 601C600 601 557 601 514.2 601C471.3 601 428.7 601 385.8 601C343 601 300 601 257.2 601C214.3 601 171.7 601 128.8 601C86 601 43 601 21.5 601L0 601Z" fill="#ef5f67"></path><path d="M0 462L21.5 458.8C43 455.7 86 449.3 128.8 452C171.7 454.7 214.3 466.3 257.2 475.7C300 485 343 492 385.8 497C428.7 502 471.3 505 514.2 506C557 507 600 506 642.8 498.5C685.7 491 728.3 477 771.2 471C814 465 857 467 878.5 468L900 469L900 601L878.5 601C857 601 814 601 771.2 601C728.3 601 685.7 601 642.8 601C600 601 557 601 514.2 601C471.3 601 428.7 601 385.8 601C343 601 300 601 257.2 601C214.3 601 171.7 601 128.8 601C86 601 43 601 21.5 601L0 601Z" fill="#e34c67"></path><path d="M0 492L21.5 497.8C43 503.7 86 515.3 128.8 517.7C171.7 520 214.3 513 257.2 515.2C300 517.3 343 528.7 385.8 526.2C428.7 523.7 471.3 507.3 514.2 506.7C557 506 600 521 642.8 528.2C685.7 535.3 728.3 534.7 771.2 530C814 525.3 857 516.7 878.5 512.3L900 508L900 601L878.5 601C857 601 814 601 771.2 601C728.3 601 685.7 601 642.8 601C600 601 557 601 514.2 601C471.3 601 428.7 601 385.8 601C343 601 300 601 257.2 601C214.3 601 171.7 601 128.8 601C86 601 43 601 21.5 601L0 601Z" fill="#d53867"></path><path d="M0 551L21.5 549.8C43 548.7 86 546.3 128.8 548.3C171.7 550.3 214.3 556.7 257.2 554.8C300 553 343 543 385.8 537.2C428.7 531.3 471.3 529.7 514.2 528.5C557 527.3 600 526.7 642.8 530.8C685.7 535 728.3 544 771.2 547.3C814 550.7 857 548.3 878.5 547.2L900 546L900 601L878.5 601C857 601 814 601 771.2 601C728.3 601 685.7 601 642.8 601C600 601 557 601 514.2 601C471.3 601 428.7 601 385.8 601C343 601 300 601 257.2 601C214.3 601 171.7 601 128.8 601C86 601 43 601 21.5 601L0 601Z" fill="#c62368"></path></svg>