<svg id="visual" viewBox="0 0 900 600" width="900" height="600" xmlns="http://www.w3.org/2000/svg" xmlns:xlink="http://www.w3.org/1999/xlink" version="1.1"><rect x="0" y="0" width="900" height="600" fill="#001220"></rect><path d="M0 384L21.5 386.2C43 388.3 86 392.7 128.8 403.5C171.7 414.3 214.3 431.7 257.2 433.8C300 436 343 423 385.8 413.2C428.7 403.3 471.3 396.7 514.2 402C557 407.3 600 424.7 642.8 417.8C685.7 411 728.3 380 771.2 367.2C814 354.3 857 359.7 878.5 362.3L900 365L900 601L878.5 601C857 601 814 601 771.2 601C728.3 601 685.7 601 642.8 601C600 601 557 601 514.2 601C471.3 601 428.7 601 385.8 601C343 601 300 601 257.2 601C214.3 601 171.7 601 128.8 601C86 601 43 601 21.5 601L0 601Z" fill="#cea0ae"></path><path d="M0 452L21.5 450.3C43 448.7 86 445.3 128.8 441.3C171.7 437.3 214.3 432.7 257.2 435C300 437.3 343 446.7 385.8 454C428.7 461.3 471.3 466.7 514.2 457.3C557 448 600 424 642.8 420.8C685.7 417.7 728.3 435.3 771.2 436.2C814 437 857 421 878.5 413L900 405L900 601L878.5 601C857 601 814 601 771.2 601C728.3 601 685.7 601 642.8 601C600 601 557 601 514.2 601C471.3 601 428.7 601 385.8 601C343 601 300 601 257.2 601C214.3 601 171.7 601 128.8 601C86 601 43 601 21.5 601L0 601Z" fill="#cc8397"></path><path d="M0 449L21.5 459.3C43 469.7 86 490.3 128.8 489C171.7 487.7 214.3 464.3 257.2 452C300 439.7 343 438.3 385.8 444.5C428.7 450.7 471.3 464.3 514.2 473.3C557 482.3 600 486.7 642.8 484.7C685.7 482.7 728.3 474.3 771.2 471.2C814 468 857 470 878.5 471L900 472L900 601L878.5 601C857 601 814 601 771.2 601C728.3 601 685.7 601 642.8 601C600 601 557 601 514.2 601C471.3 601 428.7 601 385.8 601C343 601 300 601 257.2 601C214.3 601 171.7 601 128.8 601C86 601 43 601 21.5 601L0 601Z" fill="#c9647f"></path><path d="M0 537L21.5 532.2C43 527.3 86 517.7 128.8 517C171.7 516.3 214.3 524.7 257.2 520.8C300 517 343 501 385.8 495C428.7 489 471.3 493 514.2 492.8C557 492.7 600 488.3 642.8 491.3C685.7 494.3 728.3 504.7 771.2 513.3C814 522 857 529 878.5 532.5L900 536L900 601L878.5 601C857 601 814 601 771.2 601C728.3 601 685.7 601 642.8 601C600 601 557 601 514.2 601C471.3 601 428.7 601 385.8 601C343 601 300 601 257.2 601C214.3 601 171.7 601 128.8 601C86 601 43 601 21.5 601L0 601Z" fill="#c34165"></path><path d="M0 556L21.5 552.3C43 548.7 86 541.3 128.8 541.5C171.7 541.7 214.3 549.3 257.2 552.2C300 555 343 553 385.8 548.7C428.7 544.3 471.3 537.7 514.2 534.7C557 531.7 600 532.3 642.8 532.7C685.7 533 728.3 533 771.2 538.2C814 543.3 857 553.7 878.5 558.8L900 564L900 601L878.5 601C857 601 814 601 771.2 601C728.3 601 685.7 601 642.8 601C600 601 557 601 514.2 601C471.3 601 428.7 601 385.8 601C343 601 300 601 257.2 601C214.3 601 171.7 601 128.8 601C86 601 43 601 21.5 601L0 601Z" fill="#bb004b"></path></svg>