<svg id="visual" viewBox="0 0 900 600" width="900" height="600" xmlns="http://www.w3.org/2000/svg" xmlns:xlink="http://www.w3.org/1999/xlink" version="1.1"><path d="M0 427L21.5 416.8C43 406.7 86 386.3 128.8 379C171.7 371.7 214.3 377.3 257.2 386C300 394.7 343 406.3 385.8 407.2C428.7 408 471.3 398 514.2 388.7C557 379.3 600 370.7 642.8 376.2C685.7 381.7 728.3 401.3 771.2 399.2C814 397 857 373 878.5 361L900 349L900 601L878.5 601C857 601 814 601 771.2 601C728.3 601 685.7 601 642.8 601C600 601 557 601 514.2 601C471.3 601 428.7 601 385.8 601C343 601 300 601 257.2 601C214.3 601 171.7 601 128.8 601C86 601 43 601 21.5 601L0 601Z" fill="#fa7268"></path><path d="M0 470L21.5 458.2C43 446.3 86 422.7 128.8 418.7C171.7 414.7 214.3 430.3 257.2 443.8C300 457.3 343 468.7 385.8 460.5C428.7 452.3 471.3 424.7 514.2 418.3C557 412 600 427 642.8 435.7C685.7 444.3 728.3 446.7 771.2 443.5C814 440.3 857 431.7 878.5 427.3L900 423L900 601L878.5 601C857 601 814 601 771.2 601C728.3 601 685.7 601 642.8 601C600 601 557 601 514.2 601C471.3 601 428.7 601 385.8 601C343 601 300 601 257.2 601C214.3 601 171.7 601 128.8 601C86 601 43 601 21.5 601L0 601Z" fill="#ef5f67"></path><path d="M0 461L21.5 463.8C43 466.7 86 472.3 128.8 478.2C171.7 484 214.3 490 257.2 494.7C300 499.3 343 502.7 385.8 496.8C428.7 491 471.3 476 514.2 467.7C557 459.3 600 457.7 642.8 457.8C685.7 458 728.3 460 771.2 461.7C814 463.3 857 464.7 878.5 465.3L900 466L900 601L878.5 601C857 601 814 601 771.2 601C728.3 601 685.7 601 642.8 601C600 601 557 601 514.2 601C471.3 601 428.7 601 385.8 601C343 601 300 601 257.2 601C214.3 601 171.7 601 128.8 601C86 601 43 601 21.5 601L0 601Z" fill="#e34c67"></path><path d="M0 528L21.5 522C43 516 86 504 128.8 500.5C171.7 497 214.3 502 257.2 508.8C300 515.7 343 524.3 385.8 528C428.7 531.7 471.3 530.3 514.2 529.8C557 529.3 600 529.7 642.8 528C685.7 526.3 728.3 522.7 771.2 524.5C814 526.3 857 533.7 878.5 537.3L900 541L900 601L878.5 601C857 601 814 601 771.2 601C728.3 601 685.7 601 642.8 601C600 601 557 601 514.2 601C471.3 601 428.7 601 385.8 601C343 601 300 601 257.2 601C214.3 601 171.7 601 128.8 601C86 601 43 601 21.5 601L0 601Z" fill="#d53867"></path><path d="M0 573L21.5 568C43 563 86 553 128.8 545C171.7 537 214.3 531 257.2 535.8C300 540.7 343 556.3 385.8 559C428.7 561.7 471.3 551.3 514.2 544.2C557 537 600 533 642.8 538.2C685.7 543.3 728.3 557.7 771.2 564.8C814 572 857 572 878.5 572L900 572L900 601L878.5 601C857 601 814 601 771.2 601C728.3 601 685.7 601 642.8 601C600 601 557 601 514.2 601C471.3 601 428.7 601 385.8 601C343 601 300 601 257.2 601C214.3 601 171.7 601 128.8 601C86 601 43 601 21.5 601L0 601Z" fill="#c62368"></path></svg>