<svg id="visual" viewBox="0 0 900 600" width="900" height="600" xmlns="http://www.w3.org/2000/svg" xmlns:xlink="http://www.w3.org/1999/xlink" version="1.1"><path d="M0 434L10.7 429.2C21.3 424.3 42.7 414.7 64.2 417.8C85.7 421 107.3 437 128.8 450.3C150.3 463.7 171.7 474.3 193 473.3C214.3 472.3 235.7 459.7 257 450.5C278.3 441.3 299.7 435.7 321.2 436.3C342.7 437 364.3 444 385.8 441C407.3 438 428.7 425 450 420.5C471.3 416 492.7 420 514.2 428.7C535.7 437.3 557.3 450.7 578.8 454.3C600.3 458 621.7 452 643 446.3C664.3 440.7 685.7 435.3 707 440.5C728.3 445.7 749.7 461.3 771.2 463.2C792.7 465 814.3 453 835.8 451.7C857.3 450.3 878.7 459.7 889.3 464.3L900 469L900 601L889.3 601C878.7 601 857.3 601 835.8 601C814.3 601 792.7 601 771.2 601C749.7 601 728.3 601 707 601C685.7 601 664.3 601 643 601C621.7 601 600.3 601 578.8 601C557.3 601 535.7 601 514.2 601C492.7 601 471.3 601 450 601C428.7 601 407.3 601 385.8 601C364.3 601 342.7 601 321.2 601C299.7 601 278.3 601 257 601C235.7 601 214.3 601 193 601C171.7 601 150.3 601 128.8 601C107.3 601 85.7 601 64.2 601C42.7 601 21.3 601 10.7 601L0 601Z" fill="#ffae03" stroke-linecap="round" stroke-linejoin="miter"></path></svg>